/* XPM */
static char *door31726956121[] = {
/* columns rows colors chars-per-pixel */
"8 32 2 1 ",
"  c black",
". c white",
/* pixels */
"        ",
" .......",
" .......",
" .......",
" .......",
" .......",
" .......",
" .......",
" .......",
" .......",
" .......",
" .......",
" .......",
" .......",
" .......",
" .......",
" .......",
" .......",
" .......",
" .......",
" .......",
" .......",
" .......",
" .......",
" .......",
" .......",
" .......",
" .......",
" .......",
" .......",
" .......",
"        "
};
