/* XPM */
static char *door11726956121[] = {
/* columns rows colors chars-per-pixel */
"24 32 2 1 ",
"  c black",
". c white",
/* pixels */
"                        ",
" .......................",
" .......................",
" .......................",
" .......................",
" .......................",
" .......................",
" .......................",
" .......................",
" .......................",
" .......................",
" .......................",
" .......................",
" .......................",
" .......................",
" .......................",
" .......................",
" .......................",
" .......................",
" .......................",
" .......................",
" .......................",
" .......................",
" .......................",
" .......................",
" .......................",
" .......................",
" .......................",
" .......................",
" .......................",
" .......................",
"                        "
};
