/* XPM */
static char *down21708027397[] = {
/* columns rows colors chars-per-pixel */
"32 32 113 2 ",
"   c white",
".  c gray93",
"X  c gray79",
"o  c gray80",
"O  c #CDCDCD",
"+  c #CACACA",
"@  c #D8D8D8",
"#  c #F6F6F6",
"$  c #C8C8C8",
"%  c #C6C6C6",
"&  c gray78",
"*  c gray77",
"=  c gray95",
"-  c #C0C0C0",
";  c #B6B6B6",
":  c #B7B7B7",
">  c gray86",
",  c gray98",
"<  c #C3C3C3",
"1  c #B4B4B4",
"2  c gray70",
"3  c #D5D5D5",
"4  c #CECECE",
"5  c #E2E2E2",
"6  c #FDFDFD",
"7  c #F8F8F8",
"8  c #D7D7D7",
"9  c #C1C1C1",
"0  c #C5C5C5",
"q  c gray76",
"w  c #CBCBCB",
"e  c gray74",
"r  c gray",
"t  c gray99",
"y  c #F3F3F3",
"u  c #FEFEFE",
"i  c #F4F4F4",
"p  c gray94",
"a  c #F1F1F1",
"s  c gray97",
"d  c #D0D0D0",
"f  c #DFDFDF",
"g  c gray96",
"h  c gray83",
"j  c gray84",
"k  c #DADADA",
"l  c gray85",
"z  c gray88",
"x  c #E4E4E4",
"c  c #B9B9B9",
"v  c #B1B1B1",
"b  c gray82",
"n  c #EFEFEF",
"m  c gray92",
"M  c gray89",
"N  c #F9F9F9",
"B  c #BBBBBB",
"V  c #AAAAAA",
"C  c gray67",
"Z  c gray81",
"A  c gray91",
"S  c gray72",
"D  c gray64",
"F  c #A5A5A5",
"G  c #A4A4A4",
"H  c gray66",
"J  c #ECECEC",
"K  c gray71",
"L  c #6D6D6D",
"P  c #747474",
"I  c gray46",
"U  c #797979",
"Y  c gray47",
"T  c gray44",
"R  c #A9A9A9",
"E  c #808080",
"W  c black",
"Q  c #222222",
"!  c gray12",
"~  c gray15",
"^  c #373737",
"/  c #3C3C3C",
"(  c gray19",
")  c #010101",
"_  c gray45",
"`  c LightGray",
"'  c gray51",
"]  c gray10",
"[  c gray20",
"{  c #323232",
"}  c gray21",
"|  c #434343",
" . c #464646",
".. c gray23",
"X. c #353535",
"o. c gray26",
"O. c gray25",
"+. c #313131",
"@. c #414141",
"#. c gray27",
"$. c #181818",
"%. c gray24",
"&. c #1D1D1D",
"*. c gray43",
"=. c gray56",
"-. c #202020",
";. c #2C2C2C",
":. c #1B1B1B",
">. c #393939",
",. c gray22",
"<. c #2A2A2A",
"1. c #A0A0A0",
"2. c gray75",
/* pixels */
"W W W W W W W W W W W W W W W W W W W W W W W W W W W W W W W W ",
"W                                                             W ",
"W                                                             W ",
"W . X o O + @ # $ % & & & % % & % & & & & & & % & % & * @     W ",
"W = - ; ; : > , < 1 2 1 1 1 1 2 1 2 2 2 2 2 2 1 1 1 2 1 >     W ",
"W   = 3 4 5 6   7 8 9 0 % q X 9 w e r r r r e + 9 + 9 . 6     W ",
"W     t y     u i p p p p p p p p p p p p p p p p p p p ,     W ",
"W     , a     s d w o o o o o o o o o o o o o o o w w X f     W ",
"W     , a     g o w o o o o o o o o o o o o o w o h j h k     W ",
"W     , a     s l 8 8 8 8 8 8 8 8 8 8 8 8 8 8 8 @ z z f x     W ",
"W     t . t   i c 1 1 1 1 1 1 1 1 1 1 1 1 1 1 1 1 1 2 v b     W ",
"W       s . n m 8 j @ l l l l l l l l l l l l l l @ j h M     W ",
"W         6 t N k b B V C C C C C C C C C C C C C 2 Z Z A     W ",
"W                 , S D F F F F F F F F F F F F G H .         W ",
"W                 s % < < < < < < < < < < < * & % 9 J         W ",
"W               u s 0 < $ % 0 0 0 0 % % 0 0 % X % r m         W ",
"W                 7 q 3 K L P P P P P I U Y T R @ e m         W ",
"W                 7 < h E W Q Q Q ! ~ ^ / ( ) _ 3 e m         W ",
"W                 7 < ` ' ] [ [ { } |  ...{ ^ Y 3 e m         W ",
"W                 7 < h ' ] [ { X.o. ./ { O./ Y 3 e m         W ",
"W               u 7 < h ' ] +.X.|  ./ { @.#...Y 3 e m         W ",
"W               u 7 < h ' $.X.| #.%.{ O.#.#...Y 3 e m         W ",
"W                 7 < ` ' &.o. .%.{ O. .#.#...P h e m         W ",
"W               u 7 < ` ' [  .%.{ O.#.#.#.#.( *.h e m         W ",
"W               u 7 < 3 =.-.;.:.+.>.,.,.^ <.W Y @ e m         W ",
"W                 7 < Z & D D G F F F F F D 1.9 ` r m         W ",
"W                 7 < r 9 * * < < < < < < * * q 2.e m         W ",
"W                 6 > 4 Z Z Z Z Z Z Z Z Z Z Z Z d ` #         W ",
"W                   u 6 6 6 6 6 6 6 6 6 6 6 6 6 6 u u         W ",
"W                                                             W ",
"W                                                             W ",
"W W W W W W W W W W W W W W W W W W W W W W W W W W W W W W W W "
};
