/* XPM */
static char *_c6f72271f204bcdbbc90f613547f975lCdpd6ZS31X6z5qL[] = {
/* columns rows colors chars-per-pixel */
"108 107 47 1 ",
"  c black",
". c #F21C21",
"X c #F43B2D",
"o c #C1521B",
"O c #D57908",
"+ c #F65A38",
"@ c #C37127",
"# c #E01441",
"$ c #E2334C",
"% c #CE0C60",
"& c #E45257",
"* c #D24A76",
"= c #E67163",
"- c #D79813",
"; c #D9B71E",
": c #EDDE0B",
"> c #EFFD16",
", c #DBD62A",
"< c #DDF535",
"1 c #E8906E",
"2 c #EAAF7A",
"3 c #BE238A",
"4 c #F10C9C",
"5 c #DF04BB",
"6 c #F32BA7",
"7 c #D46982",
"8 c #F54AB3",
"9 c #C261A1",
"0 c #E123C6",
"q c #CF1BE5",
"w c #D13AF1",
"e c #E342D2",
"r c #E561DD",
"t c #D359FC",
"y c #D8A799",
"u c #C480AC",
"i c #ECCE85",
"p c #EEED90",
"a c #DAC6A4",
"s c #DCE5AF",
"d c #C8BEC3",
"f c #E780E8",
"g c #E99FF4",
"h c #EBBEFF",
"j c #B8D5EE",
"k c #CADDCF",
"l c #CCFCDA",
/* pixels */
"888888888888888888888888888888888888888888888888888888888888888888888888888888888888888888888888888888888888",
"88888888888888888888888888888888888888888888888888XXXXXX8888888888888888888888888888888888888888888888888888",
"888888888888888888888888888888888888888888888XXXXX66r66XXXXXX88888888888888888888888888888888888888888888888",
"888888888888888888888888888888888888888888XXXXXXX66.=.66XXXXXXXX88888888888888888888888888888888888888888888",
"8888888888888888888888888888888888888888XXXXXXXX6664e>666XXXXXXXXXX88888888888888888888888888888888888888888",
"8888888888888888888888888888888888888XXXXXXXXXXX666>&>.666XXXXXXXXXXX888888888888888888888888888888888888888",
"88888888888888888888888888888888888XXXXXXXXXXXX666.4 4.666XXXXXXXXXXXXX8888888888888888888888888888888888888",
"888888888888888888888888888888888XXXXXXXXXXXXXX66..>g>4.66XXXXXXXXXXXXXXX88888888888888888888888888888888888",
"88888888888888888888888888888888XXXXXXXXXXXXXXX6...>e>4..66XXXXXXXXXXXXXXXX888888888888888888888888888888888",
"X88888888888888888888888888888XXXXXXXXXXXXXXXX66..4i0i4...6XXXXXXXXXXXXXXXXXX8888888888888888888888888888888",
"XX8888888888888888888888888XXXXXXXXXXXXXXXXXXX6...>:&:>4..6XXXXXXXXXXXXXXXXXXXX88888888888888888888888888888",
"XXX8888888888888888888888XXXXXXXXXXXXXXXXXXXX66.44>:#i>>4..6XXXXXXXXXXXXXXXXXXXXX888888888888888888888888888",
"XXXXX888888888888888888XXXXXXXXXXXXXXXXXXXXXX6.44>piehp>44466XXXXXXXXXXXXXXXXXXXXXXX8888888888888888888888XX",
"6XXXXXXX88888888888XXXXXXXXXXXXXXXXXXXXXXXXX6.r::p:2&2:pphh.6XXXXXXXXXXXXXXXXXXXXXXXXXX88888888888888888XXXX",
"66XXXXXXXXXXXXXXXXXXXXXXXXXXXXXXXXXXXXXXXXX66.>h112f &1r&g>4.6XXXXXXXXXXXXXXXXXXXXXXXXXXXXX888888888XXXXXXXX",
"..66XXXXXXXXXXXXXXXXXXXXXXXXXXXXXXXXXXXXXX66.44>pihf e2ipp44.666XXXXXXXXXXXXXXXXXXXXXXXXXXXXXXXXXXXXXXXXXXXX",
"4>4666XXXXXXXXXXXXXXXXXXXXXXXXXXXXXXXXXX666...44pp:20g::p>44..6666XXXXXXXXXXXXXXXXXXXXXXXXXXXXXXXXXXXXXXXXX6",
"p14..6666XXXXXXXXXXXXXXXXXXXXXXXXXXXX666666...44>p:h#2ip>>4....66666XXXXXXXXXXXXXXXXXXXXXXXXXXXXXXXXXXXXX666",
"ip44..6666666XXXXXXXXXXXXXXXXXXXXX66666666....44>>h1 fg>>>4....666666666XXXXXXXXXXXXXXXXXXXXXXXXXXXXX66666.4",
"2>44...6666666666666666666666666666666666.....44>>:h$2ip>>4.....66666666666666XXXXXXXXXXXXXXXXXX66666666.4p>",
"i>4.....666666666666666666666666666666666......4>p:h#2:p>>4......6666666666666666666666666666666666666...4:1",
":>4......6666666666666666666666666666666.......>pp:2eg::p>4.......66666666666666666666666666666666666...44pO",
"ip4......666666666666666666666666666666........>pihg#1hipp4.......666666666666666666666666666666666.....44>h",
"1&4.......6666666666666666666666666666........4p2=,< ,0tf:4........6666666666666666666666666666666......4>>h",
":p4........666666666666666666666666666........4>pih=$=hipp4.........66666666666666666666666666666.......4>>i",
"p>>4........6666666666666666666666666........44>p::2$gi:p>>4........6666666666666666666666666666........4>p:",
">>>4........666666666666666666666666........44>>>::2e1::p>>44........66666666666666666666666666.........4pih",
">>>44........6666666666666666666666........444>>>pihs2i:>>>444........666666666666666666666666..........>h11",
">>>444........666666666666666666666.......4444>>>pig0g2:>>>>444........6666666666666666666666..........4>pii",
">>>4444........6666666666666666666.......4444>>>>pig0g2:>>>>4444........66666666666666666666..........44>p::",
">>>44444........6666666666666666.......444444>>>>p:hehi:>>>>444444.......666666666666666666..........44>>>p:",
">>>4444444........6666666666666.......4444444>>>p::251::p>>>4444444.......666666666666666..........4444>>>p:",
">>>>44444444........666666666.......444444444>>>p::h&h::pp>>>44444444......6666666666666..........4444>>>>>i",
">>>>4444444444..........6........44444444444>>>pp::hfhi:pp>>>4444444444......66666666..........4444444>>>>>i",
">>>>4444444444444..............4444444444444>>ppp:ii$2i:ppp>>4444444444444..................4444444444>>>>p:",
"p>>>4444444444444444444444444444444444444444>>ppp:i2$2i:pppp>>444444444444444...........4444444444444>>>>>p:",
"pp>>>444444444444444444>pp>>444444444444444>>pppp:hg#12ipppp>>444444444444444444444444444444444444444>>>>pp:",
"pp>>>444444444444444>>>p:ip>>>>44444444444>>pppp:hg= rgh:pppp>>444444444444>>>>pp>>44444444444444444>>>>ppp:",
"ppp>>>444444444444>>>>>pih:>>>>>>44444444>>ppp::ii21s12hi::ppp>>444444444>>>>>piip>>>444444444444444>>>pppp:",
"ppppp>>4444444444>>>>>>ihsip>>>>>>>>>44>>>p::::iii215f2iii::::p>>>4444>>>>>>>>:ghp>>>>4444444444444>>>ppppp:",
"pppppp>>>44444>>>>>>>>pfe52:p>>>>>>>>>>>pi2i::iiiigf<fghiii:::hip>>>>>>>>>>>>:1rgh>>>>>>4444444444>>>ppppp::",
"pppppppp>>>>>>>>>>>>pp:i1rh::ppppppppppp::112hiih2=$ 7=2hiihh1ri:pppp>>>>>ppp:hrgip>>>>>>>4444444>>ppppppp:i",
":::::::ihpppppppppppp::ig&2::pppppppppp:::a#ghhh221=a=122hhhg5O:::pppppppppp::he2i:pp>>>>>>>>>>>>ppppppppp:i",
":::::::hh::pppppppppp::hf$2:::ppppppppp::ih1*1g22g1r7&1g222g0f2i::ppppppppp:::, =:::ppppppp>>ppp:pppppppp:ii",
"iiiiii2&g:::pppppppp::ihgOhi:::ppppppp:::ihgf&111==r-&=f1g1rrghi:::ppppppp:::hg52i::ppppppppp:i1:::::pp::hhh",
"iiiiihg gi:::pppppp::iihg&2hii::ppppp::iiih2g=rf=,&e;$&t=f=rg2hiii::ppppp::iihg0hhi::ppppppp::h#1::::::ii2rg",
"iiiihhfs2hii:::ppp::iiihgr2hiiii:::::iiiihh2g10e&$#sO<#$&e5fg2hhiiii:::::iiiihg&2hii::pppp::::hrghiiiiiih2f<",
"iihh22f=2hiiiiiiiiiiiih2r,g2hiiiih=hiiiiih22gfrs#,@l9lOs#;ef122hiiiiihrhiiiih2fe22iiii:::::iiih#=hhiiiihh2g&",
"<2222gffg2hiiiih12hhhhgg1<1g1hhhhgyhhhiih222=r&#-3     ow#&r=222hiihhh;2hhhhggfe1ghiihh1hiiiih2ff22hiih2221f",
"0ggggfe=1222hhh2fg222g5=rO==rg222g#g222gfgg1f00<d       j,05=1ggfg222g;g222g<=&0==1222grhhiih221=g22g1222g1f",
"af11r&5&#1gfg22gff12g1=k<O5s=1gg1f&1g2g1,f1f=&#O         t#&=f1f51g2g1e11gg1=5<s$&fg2g1fg22fggr=qr11f&11fffr",
"5r<=&, ;&==&=1%=ee=r=5&<   s&0=#=;#r=rf=#r&&#$<l         us$5&er<=fr=esy= =r&,  tsrfe=e&f&1r=fr<-$=e=&==r&r&",
"                                                                                                            ",
"5r<=&, ;&==&=1%=ee=r=5&<   s&0=#=;#r=rf=#r&&#$<l         us$5&er<=fr=esy= =r&,  tsrfe=e&f&1r=fr<-$=e=&==r&r&",
"af11r&5&#1gfg22gff12g1=k<O5s=1gg1f&1g2g1,f1f=&#O         t#&=f1f51g2g1e11gg1=5<s$&fg2g1fg22fggr=qr11f&11fffr",
"0ggggfe=1222hhh2fg222g5=rO==rg222g#g222gfgg1f00<d       j,05=1ggfg222g;g222g<=&0==1222grhhiih221=g22g1222g1f",
"<2222gffg2hiiiih12hhhhgg1<1g1hhhhgyhhhiih222=r&#-3     ow#&r=222hiihhh;2hhhhggfe1ghiihh1hiiiih2ff22hiih2221f",
"iihh22f=2hiiiiiiiiiiiih2r,g2hiiiih=hiiiiih22gfrs#,@l9lOs#;ef122hiiiiihrhiiiih2fe22iiii:::::iiih#=hhiiiihh2g&",
"iiiihhfs2hii:::ppp::iiihgr2hiiii:::::iiiihh2g10e&$#sO<#$&e5fg2hhiiii:::::iiiihg&2hii::pppp::::hrghiiiiiih2f<",
"iiiiihg gi:::pppppp::iihg&2hii::ppppp::iiih2g=rf=,&e;$&t=f=rg2hiii::ppppp::iihg0hhi::ppppppp::h#1::::::ii2rg",
"iiiiii2&g:::pppppppp::ihgOhi:::ppppppp:::ihgf&111==r-&=f1g1rrghi:::ppppppp:::hg52i::ppppppppp:i1:::::pp::hhh",
":::::::hh::pppppppppp::hf$2:::ppppppppp::ih1*1g22g1r7&1g222g0f2i::ppppppppp:::, =:::ppppppp>>ppp:pppppppp:ii",
":::::::ihpppppppppppp::ig&2::pppppppppp:::a#ghhh221=a=122hhhg5O:::pppppppppp::he2i:pp>>>>>>>>>>>>ppppppppp:i",
"pppppppp>>>>>>>>>>>>pp:i1rh::ppppppppppp::112hiih2=$ 7=2hiihh1ri:pppp>>>>>ppp:hrgip>>>>>>>4444444>>ppppppp:i",
"pppppp>>>44444>>>>>>>>pfe52:p>>>>>>>>>>>pi2i::iiiigf<fghiii:::hip>>>>>>>>>>>>:1rgh>>>>>>4444444444>>>ppppp::",
"ppppp>>4444444444>>>>>>ihsip>>>>>>>>>44>>>p::::iii215f2iii::::p>>>4444>>>>>>>>:ghp>>>>4444444444444>>>ppppp:",
"ppp>>>444444444444>>>>>pih:>>>>>>44444444>>ppp::ii21s12hi::ppp>>444444444>>>>>piip>>>444444444444444>>>pppp:",
"pp>>>444444444444444>>>p:ip>>>>44444444444>>pppp:hg= rgh:pppp>>444444444444>>>>pp>>44444444444444444>>>>ppp:",
"pp>>>444444444444444444>pp>>444444444444444>>pppp:hg#12ipppp>>444444444444444444444444444444444444444>>>>pp:",
"p>>>4444444444444444444444444444444444444444>>ppp:i2$2i:pppp>>444444444444444...........4444444444444>>>>>p:",
">>>>4444444444444..............4444444444444>>ppp:ii$2i:ppp>>4444444444444..................4444444444>>>>p:",
">>>>4444444444..........6........44444444444>>>pp::hfhi:pp>>>4444444444......66666666..........4444444>>>>>i",
">>>>44444444........666666666.......444444444>>>p::h&h::pp>>>44444444......6666666666666..........4444>>>>>i",
">>>4444444........6666666666666.......4444444>>>p::251::p>>>4444444.......666666666666666..........4444>>>p:",
">>>44444........6666666666666666.......444444>>>>p:hehi:>>>>444444.......666666666666666666..........44>>>p:",
">>>4444........6666666666666666666.......4444>>>>pig0g2:>>>>4444........66666666666666666666..........44>p::",
">>>444........666666666666666666666.......4444>>>pig0g2:>>>>444........6666666666666666666666..........4>pii",
">>>44........6666666666666666666666........444>>>pihs2i:>>>444........666666666666666666666666..........>h11",
">>>4........666666666666666666666666........44>>>::2e1::p>>44........66666666666666666666666666.........4pih",
"p>>4........6666666666666666666666666........44>p::2$gi:p>>4........6666666666666666666666666666........4>p:",
":p4........666666666666666666666666666........4>pih=$=hipp4.........66666666666666666666666666666.......4>>i",
"1&4.......6666666666666666666666666666........4p2=,< ,0tf:4........6666666666666666666666666666666......4>>h",
"ip4......666666666666666666666666666666........>pihg#1hipp4.......666666666666666666666666666666666.....44>h",
":>4......6666666666666666666666666666666.......>pp:2eg::p>4.......66666666666666666666666666666666666...44pO",
"i>4.....666666666666666666666666666666666......4>p:h#2:p>>4......6666666666666666666666666666666666666...4:1",
"2>44...6666666666666666666666666666666666.....44>>:h$2ip>>4.....66666666666666XXXXXXXXXXXXXXXXXX66666666.4p>",
"ip44..6666666XXXXXXXXXXXXXXXXXXXXX66666666....44>>h1 fg>>>4....666666666XXXXXXXXXXXXXXXXXXXXXXXXXXXXX66666.4",
"p14..6666XXXXXXXXXXXXXXXXXXXXXXXXXXXX666666...44>p:h#2ip>>4....66666XXXXXXXXXXXXXXXXXXXXXXXXXXXXXXXXXXXXX666",
"4>4666XXXXXXXXXXXXXXXXXXXXXXXXXXXXXXXXXX666...44pp:20g::p>44..6666XXXXXXXXXXXXXXXXXXXXXXXXXXXXXXXXXXXXXXXXX6",
"..66XXXXXXXXXXXXXXXXXXXXXXXXXXXXXXXXXXXXXX66.44>pihf e2ipp44.666XXXXXXXXXXXXXXXXXXXXXXXXXXXXXXXXXXXXXXXXXXXX",
"66XXXXXXXXXXXXXXXXXXXXXXXXXXXXXXXXXXXXXXXXX66.>h112f &1r&g>4.6XXXXXXXXXXXXXXXXXXXXXXXXXXXXX888888888XXXXXXXX",
"6XXXXXXX88888888888XXXXXXXXXXXXXXXXXXXXXXXXX6.r::p:2&2:pphh.6XXXXXXXXXXXXXXXXXXXXXXXXXX88888888888888888XXXX",
"XXXXX888888888888888888XXXXXXXXXXXXXXXXXXXXXX6.44>piehp>44466XXXXXXXXXXXXXXXXXXXXXXX8888888888888888888888XX",
"XXX8888888888888888888888XXXXXXXXXXXXXXXXXXXX66.44>:#i>>4..6XXXXXXXXXXXXXXXXXXXXX888888888888888888888888888",
"XX8888888888888888888888888XXXXXXXXXXXXXXXXXXX6...>:&:>4..6XXXXXXXXXXXXXXXXXXXX88888888888888888888888888888",
"X88888888888888888888888888888XXXXXXXXXXXXXXXX66..4i0i4...6XXXXXXXXXXXXXXXXXX8888888888888888888888888888888",
"88888888888888888888888888888888XXXXXXXXXXXXXXX6...>e>4..66XXXXXXXXXXXXXXXX888888888888888888888888888888888",
"888888888888888888888888888888888XXXXXXXXXXXXXX66..>g>4.66XXXXXXXXXXXXXXX88888888888888888888888888888888888",
"88888888888888888888888888888888888XXXXXXXXXXXX666.4 4.666XXXXXXXXXXXXX8888888888888888888888888888888888888",
"8888888888888888888888888888888888888XXXXXXXXXXX666>&>.666XXXXXXXXXXX888888888888888888888888888888888888888",
"8888888888888888888888888888888888888888XXXXXXXX6664e>666XXXXXXXXXX88888888888888888888888888888888888888888",
"888888888888888888888888888888888888888888XXXXXXX66.=.66XXXXXXXX88888888888888888888888888888888888888888888",
"888888888888888888888888888888888888888888888XXXXX66r66XXXXXX88888888888888888888888888888888888888888888888",
"88888888888888888888888888888888888888888888888888XXXXXX8888888888888888888888888888888888888888888888888888",
"888888888888888888888888888888888888888888888888888888888888888888888888888888888888888888888888888888888888",
"888888888888888888888888888888888888888888888888888888888888888888888888888888888888888888888888888888888888",
"8888888888888888888888888888888888888888++++++++++++++++++++++8888888888888888888888888888888888888888888888"
};
