/* XPM */
static char *right21708027351[] = {
/* columns rows colors chars-per-pixel */
"32 32 113 2 ",
"   c white",
".  c #D8D8D8",
"X  c gray86",
"o  c #FDFDFD",
"O  c gray98",
"+  c #DFDFDF",
"@  c #DADADA",
"#  c #E4E4E4",
"$  c gray82",
"%  c gray89",
"&  c gray91",
"*  c gray77",
"=  c #B4B4B4",
"-  c gray93",
";  c gray94",
":  c gray79",
">  c gray83",
",  c #B1B1B1",
"<  c gray81",
"1  c gray78",
"2  c gray70",
"3  c #C1C1C1",
"4  c #CBCBCB",
"5  c gray84",
"6  c gray88",
"7  c #ECECEC",
"8  c gray92",
"9  c #F6F6F6",
"0  c #FEFEFE",
"q  c #C6C6C6",
"w  c #CACACA",
"e  c gray66",
"r  c gray",
"t  c gray74",
"y  c LightGray",
"u  c gray80",
"i  c gray85",
"p  c gray67",
"a  c #A4A4A4",
"s  c #D5D5D5",
"d  c gray75",
"f  c #D0D0D0",
"g  c #D7D7D7",
"h  c #A5A5A5",
"j  c #A9A9A9",
"k  c gray45",
"l  c gray47",
"z  c #747474",
"x  c gray43",
"c  c gray76",
"v  c gray44",
"b  c #010101",
"n  c #373737",
"m  c #3C3C3C",
"M  c gray23",
"N  c gray19",
"B  c black",
"V  c #A0A0A0",
"C  c #C3C3C3",
"Z  c #C5C5C5",
"A  c #323232",
"S  c gray25",
"D  c gray27",
"F  c #2A2A2A",
"G  c gray64",
"H  c #797979",
"J  c #414141",
"K  c gray46",
"L  c #464646",
"P  c gray22",
"I  c gray15",
"U  c #434343",
"Y  c gray12",
"T  c gray21",
"R  c gray26",
"E  c gray24",
"W  c #393939",
"Q  c #222222",
"!  c #353535",
"~  c #313131",
"^  c gray20",
"/  c #1B1B1B",
"(  c #2C2C2C",
")  c #6D6D6D",
"_  c gray10",
"`  c #181818",
"'  c #1D1D1D",
"]  c #202020",
"[  c #C8C8C8",
"{  c gray71",
"}  c #808080",
"|  c gray51",
" . c gray56",
".. c #AAAAAA",
"X. c #CECECE",
"o. c #BBBBBB",
"O. c gray72",
"+. c gray97",
"@. c #F8F8F8",
"#. c #F4F4F4",
"$. c #B9B9B9",
"%. c gray96",
"&. c #F9F9F9",
"*. c #EFEFEF",
"=. c gray99",
"-. c #B7B7B7",
";. c #E2E2E2",
":. c #CDCDCD",
">. c #B6B6B6",
",. c #F3F3F3",
"<. c #F1F1F1",
"1. c #C0C0C0",
"2. c gray95",
/* pixels */
"B B B B B B B B B B B B B B B B B B B B B B B B B B B B B B B B ",
"B                                                             B ",
"B                                                             B ",
"B     . X o O + @ # $ % &                                     B ",
"B     * = - ; : > + , > <                                     B ",
"B     1 2 3 ; 4 5 6 2 5 < - 7 8 8 8 8 8 8 8 8 8 8 8 8 9 0     B ",
"B     q = w ; 4 > 6 = . 2 e 3 r t t t t t t t t t r t y 0     B ",
"B     1 = 3 ; u u . = i p a q q . s s s s s > > . y d f o     B ",
"B     q = w ; u 4 g = i p h 1 : j k l l l l z x l 3 c < o     B ",
"B     1 2 t ; u u g = i p h * q v b n m M M M N B V * < o     B ",
"B     1 2 r ; u u g = i p h C Z l N A S D D D D F G * < o     B ",
"B     1 2 r ; u u g = i p h C Z H m M A J D D D n h C < o     B ",
"B     1 2 r ; u u g = i p h C q K n L m A S L D P h C < o     B ",
"B     1 2 r ; u u g = i p h C q z I U L m A S D P h C < o     B ",
"B     1 2 t ; u u g = i p h C Z z Y T R L E A S W h C < o     B ",
"B     q = 4 ; u u g = i p h C Z z Q A ! U D E A ~ h C < o     B ",
"B     1 2 3 ; u u g = i p h C Z z Q ^ A ! U L E / a C < o     B ",
"B     q = : ; u u g = i p h C Z z Q ^ ^ ~ ! R L ( G * < o     B ",
"B     q = c ; u u g = i p h C q ) B _ _ _ ` ' ^ ] G * < o     B ",
"B     1 = q ; u u g = i p h C [ { } | | | | | |  .1 3 < o     B ",
"B     1 = Z ; u u g = i ..G C C s > y > > > y y s < r X.o     B ",
"B     1 2 3 ; u u g = . o.O.q Z c C C C C C C C C C C X 0     B ",
"B     q = g ; 4 4 g = 5 $ O +.+.@.@.@.@.@.@.@.@.@.@.@.o       B ",
"B     [ C @.#.f u i $.g @     0         0 0   0 0             B ",
"B     9 O   0 +.%.+.#.8 &.                                    B ",
"B     . X o           *.=.                                    B ",
"B     w -.;.        =.- o                                     B ",
"B     :.>.X.,.<.<.<.- +.                                      B ",
"B     u >.s =.O O O =.                                        B ",
"B     : 1.2.                                                  B ",
"B     - 2.                                                    B ",
"B B B B B B B B B B B B B B B B B B B B B B B B B B B B B B B B "
};
