/* XPM */
static char *exit1x1708184036[] = {
/* columns rows colors chars-per-pixel */
"32 32 2 1 ",
"  c black",
". c white",
/* pixels */
"                                ",
" ............... .............. ",
" ............... .............. ",
" ............... .............. ",
" ............... .............. ",
" ............... .............. ",
" ............... .............. ",
" ............... .............. ",
" ............... .............. ",
" ............... .............. ",
" ............... .............. ",
" ............... .............. ",
" ............... .............. ",
" ............... .............. ",
" ............... .............. ",
"                                ",
" ............... .............. ",
" ............... .............. ",
" ............... .............. ",
" ............... .............. ",
" ............... .............. ",
" ............... .............. ",
" ............... .............. ",
" ............... .............. ",
" ............... .............. ",
" ............... .............. ",
" ............... .............. ",
" ............... .............. ",
" ............... .............. ",
" ............... .............. ",
" ............... .............. ",
"                                "
};
