/* XPM */
static char *_141c4cb41384dd3e5a8cddd13f32274w9ZonmBUpt743Li7[] = {
/* columns rows colors chars-per-pixel */
"32 32 8 1 ",
"  c black",
". c gray12",
"X c #C0C0C0",
"o c white",
"O c gray8",
"+ c gray73",
"@ c gray6",
"# c #0E0E0E",
/* pixels */
"                                ",
" .XooooooooooooooooooooooooooXO ",
" +OXooooooooooooooooooooooooXO+ ",
" o+OXooooooooooooooooooooooXO+o ",
" oo+OXooooooooooooooooooooXO+oo ",
" ooo+OXooooooooooooooooooXO+ooo ",
" oooo+OXooooooooooooooooXO+oooo ",
" ooooo+OXooooooooooooooXO+ooooo ",
" oooooo+OXooooooooooooXO+oooooo ",
" ooooooo+OXooooooooooXO+ooooooo ",
" oooooooo+OXooooooooXO+oooooooo ",
" ooooooooo+OXooooooXO+ooooooooo ",
" oooooooooo+OXooooXO+oooooooooo ",
" ooooooooooo+OXooXO+ooooooooooo ",
" oooooooooooo+OXXO+oooooooooooo ",
" ooooooooooooo+@@+ooooooooooooo ",
" oooooooooooooX##Xooooooooooooo ",
" ooooooooooooXO++OXoooooooooooo ",
" oooooooooooXO+oo+OXooooooooooo ",
" ooooooooooXO+oooo+OXoooooooooo ",
" oooooooooXO+oooooo+OXooooooooo ",
" ooooooooXO+oooooooo+OXoooooooo ",
" oooooooXO+oooooooooo+OXooooooo ",
" ooooooXO+oooooooooooo+OXoooooo ",
" oooooXO+oooooooooooooo+OXooooo ",
" ooooXO+oooooooooooooooo+OXoooo ",
" oooXO+oooooooooooooooooo+OXooo ",
" ooXO+oooooooooooooooooooo+OXoo ",
" oXO+oooooooooooooooooooooo+OXo ",
" XO+oooooooooooooooooooooooo+OX ",
" .+oooooooooooooooooooooooooo+. ",
"                                "
};
