/* XPM */
static char *exit01708016385[] = {
/* columns rows colors chars-per-pixel */
"32 32 88 1 ",
"  c black",
". c #343434",
"X c #5F5F5F",
"o c gray19",
"O c gray7",
"+ c #020202",
"@ c gray15",
"# c #272727",
"$ c #060606",
"% c gray30",
"& c #939393",
"* c #C6C6C6",
"= c gray92",
"- c gray99",
"; c gray58",
": c #0E0E0E",
"> c gray5",
", c #808080",
"< c white",
"1 c #818181",
"2 c gray6",
"3 c #0C0C0C",
"4 c #1E1E1E",
"5 c #010101",
"6 c #515151",
"7 c #E7E7E7",
"8 c #E9E9E9",
"9 c gray32",
"0 c #181818",
"q c gray53",
"w c #FEFEFE",
"e c #888888",
"r c gray9",
"t c gray2",
"y c #929292",
"u c gray11",
"i c #6C6C6C",
"p c gray43",
"a c #1B1B1B",
"s c #353535",
"d c gray14",
"f c #F6F6F6",
"g c gray97",
"h c #222222",
"j c #ACACAC",
"k c #AFAFAF",
"l c gray12",
"z c #FDFDFD",
"x c #252525",
"c c #797979",
"v c #7C7C7C",
"b c gray73",
"n c gray74",
"m c #E4E4E4",
"M c gray90",
"N c #BBBBBB",
"B c gray",
"V c gray48",
"C c gray49",
"Z c #232323",
"A c #202020",
"S c #AEAEAE",
"D c #B1B1B1",
"F c #F8F8F8",
"G c #282828",
"H c #717171",
"J c gray10",
"K c #959595",
"L c #979797",
"P c #191919",
"I c gray55",
"U c #8E8E8E",
"Y c gray33",
"T c #EAEAEA",
"R c #565656",
"E c #111111",
"W c #0B0B0B",
"Q c #848484",
"! c gray93",
"~ c #EEEEEE",
"^ c gray52",
"/ c gray4",
"( c gray3",
") c #989898",
"_ c #CBCBCB",
"` c #5B5B5B",
"' c #2C2C2C",
"] c #101010",
/* pixels */
"                                ",
"           .XoO++OoX.           ",
"         @+          +@         ",
"       #  $%&*=--=*;%$  @       ",
"     :> :,=<<<<<<<<<<=12 32     ",
"    45 67<<<<<<<<<<<<<<89  4    ",
"   0 5qw<<<<<<<<<<<<<<<<<e5 r   ",
"   t y<<<<<<<<<<<<<<<<<<<<; t   ",
"  u i<<<<<<<<<<<<<<<<<<<<<<p a  ",
" s df<<<<<<<<<<<<<<<<<<<<<<g# s ",
" h j<<<<<<<<<<<<<<<<<<<<<<<<k l ",
"  hz<<<<<<<<<<<<<<<<<<<<<<<<zx  ",
"  c<<<<<<<<<<<<<<<<<<<<<<<<<<v  ",
"  b<<<<<<<<<<<<<<<<<<<<<<<<<<n  ",
"  m<<<<<<<<<<<<<<<<<<<<<<<<<<7  ",
"  -<<<<<<<<<<<<<<<<<<<<<<<<<<-  ",
"  -<<<<<<<<<<<<<<<<<<<<<<<<<<-  ",
"  M<<<<<<<<<<<<<<<<<<<<<<<<<<7  ",
"  N<<<<<<<<<<<<<<<<<<<<<<<<<<B  ",
"  V<<<<<<<<<<<<<<<<<<<<<<<<<<C  ",
"  Zz<<<<<<<<<<<<<<<<<<<<<<<<w@  ",
" A S<<<<<<<<<<<<<<<<<<<<<<<<D 4 ",
" s #g<<<<<<<<<<<<<<<<<<<<<<FG s ",
"  a p<<<<<<<<<<<<<<<<<<<<<<H J  ",
"   t K<<<<<<<<<<<<<<<<<<<<L t   ",
"   P 5I<<<<<<<<<<<<<<<<<<U5 J   ",
"    l  YT<<<<<<<<<<<<<<=R  l    ",
"     EW 2Q!<<<<<<<<<<~^E /O     ",
"       @  (6)_!zz!_)9(  @       ",
"         @+          5@         ",
"           s`']55]'`s           ",
"                                "
};
