/* XPM */
static char *up21708027351[] = {
/* columns rows colors chars-per-pixel */
"32 32 113 2 ",
"   c white",
".  c #FEFEFE",
"X  c #FDFDFD",
"o  c #F6F6F6",
"O  c LightGray",
"+  c #D0D0D0",
"@  c gray81",
"#  c #CECECE",
"$  c gray86",
"%  c gray92",
"&  c gray74",
"*  c gray75",
"=  c gray76",
"-  c gray77",
";  c #C3C3C3",
":  c #C1C1C1",
">  c gray",
",  c #F8F8F8",
"<  c #A0A0A0",
"1  c gray64",
"2  c #A5A5A5",
"3  c #A4A4A4",
"4  c gray78",
"5  c #D8D8D8",
"6  c gray47",
"7  c black",
"8  c #2A2A2A",
"9  c #373737",
"0  c gray22",
"q  c #393939",
"w  c #313131",
"e  c #1B1B1B",
"r  c #2C2C2C",
"t  c #202020",
"y  c gray56",
"u  c #D5D5D5",
"i  c gray83",
"p  c gray43",
"a  c gray19",
"s  c gray27",
"d  c gray25",
"f  c #323232",
"g  c gray24",
"h  c #464646",
"j  c gray20",
"k  c gray51",
"l  c #747474",
"z  c gray23",
"x  c gray26",
"c  c #1D1D1D",
"v  c #434343",
"b  c #353535",
"n  c #181818",
"m  c #414141",
"M  c #3C3C3C",
"N  c gray10",
"B  c gray21",
"V  c gray45",
"C  c #010101",
"Z  c gray15",
"A  c gray12",
"S  c #222222",
"D  c #808080",
"F  c #A9A9A9",
"G  c gray44",
"H  c #797979",
"J  c gray46",
"K  c #6D6D6D",
"L  c gray71",
"P  c #C6C6C6",
"I  c gray79",
"U  c #C5C5C5",
"Y  c #C8C8C8",
"T  c gray97",
"R  c #ECECEC",
"E  c gray93",
"W  c gray66",
"Q  c gray72",
"!  c gray98",
"~  c gray91",
"^  c gray70",
"/  c gray67",
"(  c #AAAAAA",
")  c #BBBBBB",
"_  c gray82",
"`  c #DADADA",
"'  c #F9F9F9",
"]  c gray99",
"[  c gray89",
"{  c gray84",
"}  c gray85",
"|  c #D7D7D7",
" . c #EFEFEF",
".. c #B1B1B1",
"X. c #B4B4B4",
"o. c #B9B9B9",
"O. c #F4F4F4",
"+. c #E4E4E4",
"@. c #DFDFDF",
"#. c gray88",
"$. c #F1F1F1",
"%. c gray80",
"&. c #CBCBCB",
"*. c gray96",
"=. c gray94",
"-. c #F3F3F3",
";. c #CACACA",
":. c #E2E2E2",
">. c gray95",
",. c #B7B7B7",
"<. c #B6B6B6",
"1. c #C0C0C0",
"2. c #CDCDCD",
/* pixels */
"7 7 7 7 7 7 7 7 7 7 7 7 7 7 7 7 7 7 7 7 7 7 7 7 7 7 7 7 7 7 7 7 ",
"7                                                             7 ",
"7                                                             7 ",
"7         . . X X X X X X X X X X X X X X .                   7 ",
"7         o O + @ @ @ @ @ @ @ @ @ @ @ @ # $ X                 7 ",
"7         % & * = - - ; ; ; ; ; ; - - : > ; ,                 7 ",
"7         % > O : < 1 2 2 2 2 2 3 1 1 4 @ ; ,                 7 ",
"7         % & 5 6 7 8 9 0 0 q w e r t y u ; , .               7 ",
"7         % & i p a s s s s d f g h j k O ; , .               7 ",
"7         % & i l z s s h d f g h x c k O ; ,                 7 ",
"7         % & u 6 z s s d f g s v b n k i ; , .               7 ",
"7         % & u 6 z s m f M h v b w N k i ; , .               7 ",
"7         % & u 6 M d f M h x b f j N k i ; ,                 7 ",
"7         % & u 6 9 f z h v B f j j N k O ; ,                 7 ",
"7         % & u V C a M 9 Z A S S S 7 D i ; ,                 7 ",
"7         % & 5 F G 6 H J l l l l l K L u = ,                 7 ",
"7         % > P I P U U P P U U U U P Y ; U T .               7 ",
"7         R : P 4 - ; ; ; ; ; ; ; ; ; ; ; P T                 7 ",
"7         E W 3 2 2 2 2 2 2 2 2 2 2 2 2 1 Q !                 7 ",
"7     ~ @ @ ^ / / / / / / / / / / / / / ( ) _ ` ' ] X         7 ",
"7     [ i { 5 } } } } } } } } } } } } } } 5 { | %  .E T       7 ",
"7     _ ..^ X.X.X.X.X.X.X.X.X.X.X.X.X.X.X.X.X.o.O.  ] E ]     7 ",
"7     +.@.#.#.5 | | | | | | | | | | | | | | | } T     $.!     7 ",
"7     ` i { i %.&.%.%.%.%.%.%.%.%.%.%.%.%.%.&.%.*.    $.!     7 ",
"7     @.I &.&.%.%.%.%.%.%.%.%.%.%.%.%.%.%.%.&.+ T     $.!     7 ",
"7     ! =.=.=.=.=.=.=.=.=.=.=.=.=.=.=.=.=.=.=.O..     -.]     7 ",
"7     X E : ;.: ;.& > > > > & &.: I = P U : | ,   X :.# u >.  7 ",
"7     $ X.^ X.X.X.^ ^ ^ ^ ^ ^ X.^ X.X.X.X.^ X.; ! $ ,.<.<.1.>.7 ",
"7     5 - 4 P 4 P 4 4 4 4 4 4 P 4 P P 4 4 4 P Y o 5 ;.2.%.I E 7 ",
"7                                                             7 ",
"7                                                             7 ",
"7 7 7 7 7 7 7 7 7 7 7 7 7 7 7 7 7 7 7 7 7 7 7 7 7 7 7 7 7 7 7 7 "
};
