/* XPM */
static char *left21708027351[] = {
/* columns rows colors chars-per-pixel */
"32 32 113 2 ",
"   c white",
".  c gray95",
"X  c gray93",
"o  c #C0C0C0",
"O  c gray79",
"+  c gray99",
"@  c gray98",
"#  c #D5D5D5",
"$  c #B6B6B6",
"%  c gray80",
"&  c gray97",
"*  c #F1F1F1",
"=  c #F3F3F3",
"-  c #CECECE",
";  c #CDCDCD",
":  c #FDFDFD",
">  c #E2E2E2",
",  c #B7B7B7",
"<  c #CACACA",
"1  c #EFEFEF",
"2  c gray86",
"3  c #D8D8D8",
"4  c #F9F9F9",
"5  c gray92",
"6  c #F4F4F4",
"7  c gray96",
"8  c #FEFEFE",
"9  c #F6F6F6",
"0  c #DADADA",
"q  c #D7D7D7",
"w  c #B9B9B9",
"e  c gray85",
"r  c #D0D0D0",
"t  c #F8F8F8",
"y  c #C3C3C3",
"u  c #C8C8C8",
"i  c gray82",
"p  c gray84",
"a  c #B4B4B4",
"s  c #CBCBCB",
"d  c gray94",
"f  c #C6C6C6",
"g  c gray76",
"h  c #C5C5C5",
"j  c gray72",
"k  c #BBBBBB",
"l  c #C1C1C1",
"z  c gray70",
"x  c gray78",
"c  c gray",
"v  c gray81",
"b  c LightGray",
"n  c gray83",
"m  c gray64",
"M  c #AAAAAA",
"N  c gray56",
"B  c gray51",
"V  c #808080",
"C  c gray71",
"Z  c #A5A5A5",
"A  c gray67",
"S  c gray77",
"D  c #202020",
"F  c gray20",
"G  c #1D1D1D",
"H  c #181818",
"J  c gray10",
"K  c black",
"L  c #6D6D6D",
"P  c #2C2C2C",
"I  c #464646",
"U  c gray26",
"Y  c #353535",
"T  c #313131",
"R  c #222222",
"E  c #747474",
"W  c #A4A4A4",
"Q  c #1B1B1B",
"!  c gray24",
"~  c #434343",
"^  c #323232",
"/  c gray27",
"(  c #393939",
")  c gray25",
"_  c gray21",
"`  c gray12",
"'  c gray74",
"]  c gray22",
"[  c #3C3C3C",
"{  c gray15",
"}  c #373737",
"|  c gray46",
" . c #414141",
".. c gray23",
"X. c #797979",
"o. c #2A2A2A",
"O. c gray19",
"+. c gray47",
"@. c #A0A0A0",
"#. c #010101",
"$. c gray44",
"%. c gray43",
"&. c gray45",
"*. c #A9A9A9",
"=. c gray75",
"-. c gray66",
";. c gray88",
":. c #ECECEC",
">. c #B1B1B1",
",. c #DFDFDF",
"<. c gray91",
"1. c gray89",
"2. c #E4E4E4",
/* pixels */
"K K K K K K K K K K K K K K K K K K K K K K K K K K K K K K K K ",
"K                                                     . X     K ",
"K                                                   . o O     K ",
"K                                         + @ @ @ + # $ %     K ",
"K                                       & X * * * = - $ ;     K ",
"K                                     : X +         > , <     K ",
"K                                     + 1           : 2 3     K ",
"K                                     4 5 6 & 7 & 8   @ 9     K ",
"K             8 8   8 8         8     0 q w e % r 6 t y u     K ",
"K       : t t t t t t t t t t t & & @ i p a q s s d q a f     K ",
"K     8 2 y y y y y y y y y y g h f j k 3 a q % % d l z x     K ",
"K     : - c v # b b n n n b n # y y m M e a q % % d h a x     K ",
"K     : v l x N B B B B B B V C u y Z A e a q % % d f a x     K ",
"K     : v S m D F G H J J J K L f y Z A e a q % % d g a f     K ",
"K     : v S m P I U Y T F F R E h y Z A e a q % % d O a f     K ",
"K     : v y W Q ! I ~ Y ^ F R E h y Z A e a q % % d l z x     K ",
"K     : v y Z T ^ ! / ~ Y ^ R E h y Z A e a q % % d s a f     K ",
"K     : v y Z ( ) ^ ! I U _ ` E h y Z A e a q % % d ' z x     K ",
"K     : v y Z ] / ) ^ [ I ~ { E f y Z A e a q % % d c z x     K ",
"K     : v y Z ] / I ) ^ [ I } | f y Z A e a q % % d c z x     K ",
"K     : v y Z } / / /  .^ ..[ X.h y Z A e a q % % d c z x     K ",
"K     : v S m o./ / / / ) ^ O.+.h y Z A e a q % % d c z x     K ",
"K     : v S @.K O.......[ } #.$.f S Z A e a q % % d ' z x     K ",
"K     : v g l +.%.E +.+.+.+.&.*.O x Z A e a q s % d < a f     K ",
"K     : r =.b 3 n n # # # # # 3 f f W A e a 3 % % d l a x     K ",
"K     8 b ' c ' ' ' ' ' ' ' ' ' c l -.z 3 a ;.n s d < a f     K ",
"K     8 9 5 5 5 5 5 5 5 5 5 5 5 5 :.X v p z ;.p s d l z x     K ",
"K                                     v n >.,.n O d X a S     K ",
"K                                     <.1.i 2.0 ,.@ : 2 3     K ",
"K                                                             K ",
"K                                                             K ",
"K K K K K K K K K K K K K K K K K K K K K K K K K K K K K K K K "
};
