/* XPM */
static char *tigr1708184036[] = {
/* columns rows colors chars-per-pixel */
"32 32 49 1 ",
"  c black",
". c white",
"X c #FF1D1D",
"o c #FF7A7A",
"O c #FF4444",
"+ c #FFBBBB",
"@ c #FF8787",
"# c #FF2B2B",
"$ c #FF0202",
"% c #FF1414",
"& c #FF5959",
"* c #FF9C9C",
"= c red",
"- c #FF4242",
"; c #FF5C5C",
": c #FF4D4D",
"> c #FFE2E2",
", c #FF1515",
"< c #FF4B4B",
"1 c #FFB9B9",
"2 c #FFBABA",
"3 c #FF3D3D",
"4 c #FF8D8D",
"5 c #FFDADA",
"6 c #FFB0B0",
"7 c #FF8181",
"8 c #FFBCBC",
"9 c #FF8585",
"0 c #FFC1C1",
"q c #FFA2A2",
"w c #FF7272",
"e c #FFB3B3",
"r c #FF3A3A",
"t c #FF6060",
"y c #FF9393",
"u c #FFD6D6",
"i c #FFAAAA",
"p c #FF7575",
"a c #FFD3D3",
"s c #FF2424",
"d c #FF6666",
"f c #FF3C3C",
"g c #FFFBFB",
"h c #FF4E4E",
"j c #FF9797",
"k c #FFF0F0",
"l c #FFDDDD",
"z c #FFA8A8",
"x c #FFEDED",
/* pixels */
"                                ",
" .............................. ",
" .............................. ",
" .............................. ",
" .............................. ",
" .............................. ",
" .............................. ",
" .............................. ",
" .............................. ",
" ...XXXXXXXXoOXXX+..@#$%&*..... ",
" ...========o-===+.;======:.... ",
" ...========o-===+>===,<===1... ",
" ...223===425-===+6===78===9... ",
" .....3===0..-===+q===78===w... ",
" .....3===0..-===+q===7errrt... ",
" .....3===0..-===+q===7........ ",
" .....3===0..-===+q===7====:... ",
" .....3===0..-===+q===7====:... ",
" .....3===0..-===+q===7y===:... ",
" .....3===0..-===+q===7u===:... ",
" .....3===0..-===+i===pa===:... ",
" .....3===0..-===+a===sd===:... ",
" .....3===0..-===+.f=======:... ",
" .....3===0..-===+.gh===j==:... ",
" .....kkkk...kkkk....lzx....... ",
" .............................. ",
" .............................. ",
" .............................. ",
" .............................. ",
" .............................. ",
" .............................. ",
"                                "
};
