/* XPM */
static char *exit1c1708443664[] = {
/* columns rows colors chars-per-pixel */
"32 32 130 2 ",
"   c black",
".  c #131313",
"X  c gray8",
"o  c #151515",
"O  c #161616",
"+  c gray9",
"@  c #181818",
"#  c #191919",
"$  c #1B1B1B",
"%  c gray11",
"&  c #1D1D1D",
"*  c #1E1E1E",
"=  c gray12",
"-  c #202020",
";  c #222222",
":  c gray14",
">  c #252525",
",  c #272727",
"<  c #2F2F2F",
"1  c #313131",
"2  c gray20",
"3  c #343434",
"4  c #353535",
"5  c gray22",
"6  c #393939",
"7  c gray23",
"8  c gray24",
"9  c #3F3F3F",
"0  c #414141",
"q  c #434343",
"w  c #464646",
"e  c #484848",
"r  c gray29",
"t  c #4C4C4C",
"y  c gray30",
"u  c gray31",
"i  c #515151",
"p  c gray33",
"a  c #565656",
"s  c #585858",
"d  c #5A5A5A",
"f  c gray36",
"g  c #5F5F5F",
"h  c gray38",
"j  c gray39",
"k  c #656565",
"l  c gray40",
"z  c #686868",
"x  c #6A6A6A",
"c  c #6C6C6C",
"v  c #6F6F6F",
"b  c #717171",
"n  c gray45",
"m  c gray46",
"M  c #767676",
"N  c gray47",
"B  c gray48",
"V  c #7C7C7C",
"C  c gray50",
"Z  c #818181",
"A  c #838383",
"S  c gray52",
"D  c #888888",
"F  c gray54",
"G  c #8B8B8B",
"H  c #8E8E8E",
"J  c gray56",
"K  c gray57",
"L  c #939393",
"P  c #959595",
"I  c #989898",
"U  c #9A9A9A",
"Y  c gray61",
"T  c gray62",
"R  c #A0A0A0",
"E  c gray64",
"W  c #A4A4A4",
"Q  c gray65",
"!  c gray66",
"~  c #AAAAAA",
"^  c #ACACAC",
"/  c #AEAEAE",
"(  c #B9B9B9",
")  c #BBBBBB",
"_  c gray74",
"`  c gray75",
"'  c #C0C0C0",
"]  c gray76",
"[  c gray77",
"{  c #C6C6C6",
"}  c #C8C8C8",
"|  c #CACACA",
" . c gray80",
".. c #CECECE",
"X. c #D0D0D0",
"o. c gray82",
"O. c LightGray",
"+. c #D5D5D5",
"@. c gray84",
"#. c #D7D7D7",
"$. c #D8D8D8",
"%. c #DADADA",
"&. c gainsboro",
"*. c gray87",
"=. c #DFDFDF",
"-. c gray88",
";. c #E7E7E7",
":. c gray91",
">. c #E9E9E9",
",. c #EAEAEA",
"<. c #ECECEC",
"1. c gray93",
"2. c #EEEEEE",
"3. c #EFEFEF",
"4. c gray94",
"5. c #F1F1F1",
"6. c gray95",
"7. c #F3F3F3",
"8. c #F4F4F4",
"9. c gray96",
"0. c #F6F6F6",
"q. c gray97",
"w. c #F8F8F8",
"e. c #F9F9F9",
"r. c gray98",
"t. c #FBFBFB",
"y. c gray99",
"u. c #FDFDFD",
"i. c #FEFEFE",
"p. c white",
/* pixels */
"                                                                ",
"  p.p.p.p.p.p.p.p.p.p.p.p.p.p.p.p.p.p.p.p.p.p.k M p.p.p.p.p.p.  ",
"  p.p.p.p.p.p.p.p.p.p.p.p.p.p.p.p.p.p.p.p.p.#.o <.p.p.p.p.p.p.  ",
"  p.p.p.p.p.p.p.p.p.p.p.p.p.p.p.p.p.p.p.p.p.t J p.p.p.p.p.p.p.  ",
"  p.p.p.p.p.p.p.p.p.p.p.p.p.p.p.p.p.p.p.p._ ; r.p.p.p.p.p.p.p.  ",
"  p.p.p.p.p.p.p.p.p.p.p.p.p.p.p.p.p.p.p.p.3 ! p.p.p.p.p.p.p.p.  ",
"  p.p.p.p.p.p.p.p.p.p.p.p.p.p.p.p.p.p.p.Q 3 p.p.p.p.p.p.p.p.p.  ",
"  B 5.p.p.p.p.p.p.p.p.p.p.p.p.p.p.p.p.r.; _ p.p.p.p.p.p.p.p.p.  ",
"  h @ L r.p.p.p.p.p.p.p.p.p.p.p.p.p.p.J t p.p.p.p.p.p.p.p.p.p.  ",
"  p.o.e > ^ p.p.p.p.p.p.p.p.p.p.p.p.<.o #.p.p.p.p.p.p.p.p.p.p.  ",
"  p.p.p.( 1 6 [ p.p.p.p.p.p.p.p.p.p.M k p.p.p.p.p.p.p.p.p.p.p.  ",
"  p.p.p.p.p.E = i #.p.p.p.p.p.p.p.-.. ;.p.p.p.p.p.p.p.p.p.p.p.  ",
"  p.p.p.p.p.p.q.F o x :.p.p.p.p.p.f Z p.p.p.p.p.p.p.p.p.p.p.p.  ",
"  p.p.p.p.p.p.p.p.<.b o Z q.p.p...@ 5.p.p.p.p.p.p.p.p.p.p.p.p.  ",
"  p.p.p.p.p.p.p.p.p.p.*.s @ T r.q I p.p.p.p.p.p.p.p.p.p.p.p.p.  ",
"  p.p.p.p.p.p.p.p.p.p.p.p.| 0 = = r.p.p.p.p.p.p.p.p.p.p.p.p.p.  ",
"  p.p.p.p.p.p.p.p.p.p.p.p.p.r.; @ 0 ..p.p.p.p.p.p.p.p.p.p.p.p.  ",
"  p.p.p.p.p.p.p.p.p.p.p.p.p.T 8 p.I @ s *.p.p.p.p.p.p.p.p.p.p.  ",
"  p.p.p.p.p.p.p.p.p.p.p.p.q.= [ p.p.q.Z . b <.p.p.p.p.p.p.p.p.  ",
"  p.p.p.p.p.p.p.p.p.p.p.p.S p p.p.p.p.p.;.x o J q.p.p.p.p.p.p.  ",
"  p.p.p.p.p.p.p.p.p.p.p.:.. *.p.p.p.p.p.p.p.#.t ; E p.p.p.p.p.  ",
"  p.p.p.p.p.p.p.p.p.p.p.v v p.p.p.p.p.p.p.p.p.p.' 6 1 _ p.p.p.  ",
"  p.p.p.p.p.p.p.p.p.p.$.. <.p.p.p.p.p.p.p.p.p.p.p.p.! > e #.p.  ",
"  p.p.p.p.p.p.p.p.p.p.p S p.p.p.p.p.p.p.p.p.p.p.p.p.p.q.L @ h   ",
"  p.p.p.p.p.p.p.p.p.[ = q.p.p.p.p.p.p.p.p.p.p.p.p.p.p.p.p.<.B   ",
"  p.p.p.p.p.p.p.p.p.8 E p.p.p.p.p.p.p.p.p.p.p.p.p.p.p.p.p.p.p.  ",
"  p.p.p.p.p.p.p.p.^ < p.p.p.p.p.p.p.p.p.p.p.p.p.p.p.p.p.p.p.p.  ",
"  p.p.p.p.p.p.p.r.> ( p.p.p.p.p.p.p.p.p.p.p.p.p.p.p.p.p.p.p.p.  ",
"  p.p.p.p.p.p.p.P q p.p.p.p.p.p.p.p.p.p.p.p.p.p.p.p.p.p.p.p.p.  ",
"  p.p.p.p.p.p.5.@ o.p.p.p.p.p.p.p.p.p.p.p.p.p.p.p.p.p.p.p.p.p.  ",
"  p.p.p.p.p.p.V f p.p.p.p.p.p.p.p.p.p.p.p.p.p.p.p.p.p.p.p.p.p.  ",
"                                                                "
};
